<svg width="102" height="54" viewBox="0 0 102 54" fill="none" xmlns="http://www.w3.org/2000/svg">
<mask id="mask0_1_71" style="mask-type:alpha" maskUnits="userSpaceOnUse" x="0" y="0" width="102" height="54">
<path d="M99 47L99 7L91 3M99 47L91 51L59 35M99 47L67 31M91 3L91 35L75 27L83 23L51 39L19 23L27 27L11 35L11 3M91 3L51 23L11 3M83 31L83 15L51 31L19 15L19 31M3 47L3 7L11 3M3 47L11 51L43 35M3 47L35 31" stroke="#9BD030" stroke-width="5" stroke-linejoin="round"/>
</mask>
<g mask="url(#mask0_1_71)">
<rect x="-22" y="-20" width="73" height="92" fill="#D9D9D9"/>
</g>
<mask id="mask1_1_71" style="mask-type:alpha" maskUnits="userSpaceOnUse" x="0" y="0" width="102" height="54">
<path d="M99 47L99 7L91 3M99 47L91 51L59 35M99 47L67 31M91 3L91 35L75 27L83 23L51 39L19 23L27 27L11 35L11 3M91 3L51 23L11 3M83 31L83 15L51 31L19 15L19 31M3 47L3 7L11 3M3 47L11 51L43 35M3 47L35 31" stroke="#9BD030" stroke-width="5" stroke-linejoin="round"/>
</mask>
<g mask="url(#mask1_1_71)">
<rect width="55" height="92" transform="matrix(-1 0 0 1 106 -20)" fill="#9ACA3C"/>
</g>
</svg>
