<svg width="21" height="20" viewBox="0 0 21 20" fill="none" xmlns="http://www.w3.org/2000/svg">
<path fill-rule="evenodd" clip-rule="evenodd" d="M6.12126 13.3333C5.25027 13.3333 4.41496 13.6845 3.79908 14.3096C3.1832 14.9347 2.8372 15.7826 2.8372 16.6666C2.8372 16.9613 2.95253 17.2439 3.15782 17.4523C3.36312 17.6607 3.64156 17.7778 3.93188 17.7778H17.0681C17.3584 17.7778 17.6369 17.6607 17.8422 17.4523C18.0475 17.2439 18.1628 16.9613 18.1628 16.6666C18.1628 15.7826 17.8168 14.9347 17.2009 14.3096C16.585 13.6845 15.7497 13.3333 14.8787 13.3333H6.12126ZM2.25096 12.7383C3.27742 11.6964 4.66961 11.1111 6.12126 11.1111H14.8787C16.3304 11.1111 17.7226 11.6964 18.749 12.7383C19.7755 13.7801 20.3522 15.1932 20.3522 16.6666C20.3522 17.5507 20.0062 18.3985 19.3903 19.0237C18.7744 19.6488 17.9391 20 17.0681 20H3.93188C3.0609 20 2.22559 19.6488 1.60971 19.0237C0.993825 18.3985 0.647827 17.5507 0.647827 16.6666C0.647827 15.1932 1.22449 13.7801 2.25096 12.7383Z" fill="white"/>
<path fill-rule="evenodd" clip-rule="evenodd" d="M10.5 2.22222C9.29086 2.22222 8.31065 3.21715 8.31065 4.44444C8.31065 5.67174 9.29086 6.66667 10.5 6.66667C11.7092 6.66667 12.6894 5.67174 12.6894 4.44444C12.6894 3.21715 11.7092 2.22222 10.5 2.22222ZM6.12128 4.44444C6.12128 1.98985 8.08171 0 10.5 0C12.9183 0 14.8788 1.98985 14.8788 4.44444C14.8788 6.89904 12.9183 8.88889 10.5 8.88889C8.08171 8.88889 6.12128 6.89904 6.12128 4.44444Z" fill="white"/>
</svg>
