<svg width="20" height="20" viewBox="0 0 20 20" fill="none" xmlns="http://www.w3.org/2000/svg">
<path d="M19.332 18.1219L15.9554 14.6254C16.5815 13.8661 17.071 13.007 17.424 12.048C17.7769 11.0889 17.9534 10.1165 17.9534 9.13087C17.9534 7.93207 17.7403 6.78655 17.3141 5.69431C16.8878 4.60206 16.2684 3.62304 15.4559 2.75724C14.5768 1.8648 13.5845 1.18215 12.4789 0.70929C11.3733 0.236429 10.2012 0 8.96242 0C7.77694 0 6.65805 0.21312 5.60577 0.63936C4.55349 1.0656 3.58779 1.68498 2.70867 2.4975C1.56315 3.60306 0.770609 4.93506 0.331048 6.49351C-0.0818721 8.01199 -0.108512 9.53047 0.251128 11.049C0.610769 12.6207 1.34337 13.9794 2.44893 15.1249C3.34137 16.004 4.34037 16.6833 5.44593 17.1628C6.55149 17.6424 7.72366 17.8821 8.96242 17.8821C9.9481 17.8821 10.9005 17.7323 11.8196 17.4326C12.7386 17.1329 13.5778 16.6966 14.337 16.1239L17.7137 19.6204C17.9534 19.8735 18.1998 20 18.4529 20C18.706 20 18.9591 19.8735 19.2122 19.6204C19.4652 19.4339 19.6084 19.1841 19.6417 18.8711C19.675 18.5581 19.5718 18.3084 19.332 18.1219ZM13.5778 13.7463C12.9651 14.3723 12.2625 14.8418 11.4699 15.1548C10.6774 15.4679 9.84154 15.6244 8.96242 15.6244C7.17754 15.6244 5.55249 14.9584 4.08729 13.6264C3.22149 12.7739 2.64873 11.7549 2.36901 10.5694C2.08929 9.45055 2.10927 8.31169 2.42895 7.15285C2.74863 5.99401 3.34137 4.98168 4.20717 4.11588C4.81989 3.50316 5.52252 3.04029 6.31506 2.72727C7.10761 2.41425 7.94344 2.25774 8.82256 2.25774C10.6074 2.25774 12.2325 2.92374 13.6977 4.25574C14.3104 4.86846 14.7833 5.59441 15.1163 6.43357C15.4226 7.24609 15.5758 8.10523 15.5758 9.01099C15.5758 9.91675 15.416 10.7692 15.0963 11.5684C14.75 12.4209 14.2438 13.1469 13.5778 13.7463Z" fill="white"/>
</svg>
