<svg width="576" height="76" viewBox="0 0 576 76" fill="none" xmlns="http://www.w3.org/2000/svg">
<path d="M152.675 54.2252L187.216 75.6962L301.572 5.21516L415.929 75.6962L450.469 54.2252L485.01 75.6962L599.366 5.21516L713.723 75.6962L748.263 54.2252L782.804 75.6962L897.16 5.21516L1011.52 75.6962L1046.06 54.2252L1080.6 75.6962L1194.95 5.21516V1.48106L1080.6 -69L1046.06 -47.5289L1011.52 -69L897.16 1.48106L782.804 -69L748.263 -47.5289L713.723 -69L599.366 1.48106L485.01 -69L450.469 -47.5289L415.929 -69L301.572 1.48106L187.216 -69L152.675 -47.5289L118.135 -69L0.977417 3.34811L118.135 75.6962L152.675 54.2252ZM1080.6 -52.6633L1171.15 3.34811L1080.6 59.3596L1059.13 46.2902L1128.21 3.34811L1059.13 -39.594L1080.6 -52.6633ZM1102.07 3.34811L1046.06 37.8885L990.046 3.34811L1046.06 -31.1923L1102.07 3.34811ZM1011.52 -52.6633L1032.99 -39.594L963.907 3.34811L1032.99 46.2902L1011.52 59.3596L920.965 3.34811L1011.52 -52.6633ZM782.804 -52.6633L873.356 3.34811L782.804 59.3596L761.333 46.2902L830.414 3.34811L761.333 -39.594L782.804 -52.6633ZM804.275 3.34811L748.263 37.8885L692.252 3.34811L748.263 -31.1923L804.275 3.34811ZM713.723 -52.6633L735.194 -39.594L666.113 3.34811L735.194 46.2902L713.723 59.3596L623.171 3.34811L713.723 -52.6633ZM485.01 -52.6633L575.561 3.34811L485.01 59.3596L464.005 46.2902L533.086 3.34811L464.005 -39.594L485.01 -52.6633ZM506.481 3.34811L450.469 37.8885L394.458 3.34811L450.469 -31.1923L506.481 3.34811ZM415.929 -52.6633L437.4 -39.594L368.319 3.34811L437.4 46.2902L415.929 59.3596L325.377 3.34811L415.929 -52.6633ZM187.216 -52.6633L277.767 3.34811L187.216 59.3596L165.744 46.2902L234.825 3.34811L165.744 -39.594L187.216 -52.6633ZM152.675 -31.1923L208.686 3.34811L152.675 37.8885L96.6636 3.34811L152.675 -31.1923ZM118.135 -52.6633L139.606 -39.594L70.525 3.34811L139.606 46.2902L118.135 59.3596L27.5828 3.34811L118.135 -52.6633Z" fill="#F0F0F0"/>
</svg>
